<svg width="1440" height="264" viewBox="0 0 1440 264" fill="none" xmlns="http://www.w3.org/2000/svg">
<mask id="path-1-inside-1_102_3" fill="white">
<path d="M0 0H1440V264H0V0Z"/>
</mask>
<path d="M0 0H1440V264H0V0Z" fill="#0099FF"/>
<path d="M95.1534 64.2727C95.1534 71.1761 93.907 77.142 91.4141 82.1705C88.9212 87.1989 85.5014 91.0767 81.1548 93.804C76.8082 96.5312 71.8438 97.8949 66.2614 97.8949C60.679 97.8949 55.7145 96.5312 51.3679 93.804C47.0213 91.0767 43.6016 87.1989 41.1087 82.1705C38.6158 77.142 37.3693 71.1761 37.3693 64.2727C37.3693 57.3693 38.6158 51.4034 41.1087 46.375C43.6016 41.3466 47.0213 37.4688 51.3679 34.7415C55.7145 32.0142 60.679 30.6506 66.2614 30.6506C71.8438 30.6506 76.8082 32.0142 81.1548 34.7415C85.5014 37.4688 88.9212 41.3466 91.4141 46.375C93.907 51.4034 95.1534 57.3693 95.1534 64.2727ZM87.483 64.2727C87.483 58.6051 86.5348 53.8217 84.6385 49.9226C82.7635 46.0234 80.2173 43.0724 77 41.0696C73.804 39.0668 70.2244 38.0653 66.2614 38.0653C62.2983 38.0653 58.7081 39.0668 55.4908 41.0696C52.2947 43.0724 49.7486 46.0234 47.8523 49.9226C45.9773 53.8217 45.0398 58.6051 45.0398 64.2727C45.0398 69.9403 45.9773 74.7237 47.8523 78.6229C49.7486 82.522 52.2947 85.473 55.4908 87.4759C58.7081 89.4787 62.2983 90.4801 66.2614 90.4801C70.2244 90.4801 73.804 89.4787 77 87.4759C80.2173 85.473 82.7635 82.522 84.6385 78.6229C86.5348 74.7237 87.483 69.9403 87.483 64.2727ZM128.04 98.0227C123.31 98.0227 119.23 96.9787 115.8 94.8906C112.391 92.7812 109.759 89.8409 107.906 86.0696C106.073 82.277 105.157 77.8665 105.157 72.8381C105.157 67.8097 106.073 63.3778 107.906 59.5426C109.759 55.6861 112.337 52.6818 115.64 50.5298C118.964 48.3565 122.842 47.2699 127.273 47.2699C129.83 47.2699 132.355 47.696 134.848 48.5483C137.341 49.4006 139.61 50.7855 141.656 52.7031C143.701 54.5994 145.331 57.1136 146.545 60.2457C147.76 63.3778 148.367 67.2344 148.367 71.8153V75.0114H110.526V68.4915H140.697C140.697 65.7216 140.143 63.25 139.035 61.0767C137.948 58.9034 136.393 57.1882 134.369 55.9311C132.366 54.674 130.001 54.0455 127.273 54.0455C124.269 54.0455 121.67 54.7912 119.475 56.2827C117.302 57.7528 115.629 59.6705 114.457 62.0355C113.286 64.4006 112.7 66.9361 112.7 69.642V73.9886C112.7 77.696 113.339 80.8388 114.617 83.4169C115.917 85.9737 117.717 87.9233 120.018 89.2656C122.32 90.5866 124.994 91.2472 128.04 91.2472C130.022 91.2472 131.812 90.9702 133.41 90.4162C135.029 89.8409 136.425 88.9886 137.597 87.8594C138.768 86.7088 139.674 85.2812 140.313 83.5767L147.6 85.6222C146.833 88.0938 145.544 90.267 143.733 92.142C141.922 93.9957 139.685 95.4446 137.021 96.4886C134.358 97.5114 131.364 98.0227 128.04 98.0227ZM194.614 58.9034L187.838 60.821C187.412 59.6918 186.783 58.5945 185.952 57.5291C185.143 56.4425 184.035 55.5476 182.629 54.8445C181.222 54.1413 179.422 53.7898 177.227 53.7898C174.223 53.7898 171.719 54.4822 169.717 55.8672C167.735 57.2308 166.744 58.9673 166.744 61.0767C166.744 62.9517 167.426 64.4325 168.79 65.5192C170.153 66.6058 172.284 67.5114 175.182 68.2358L182.469 70.0256C186.858 71.0909 190.129 72.7209 192.281 74.9155C194.433 77.0888 195.509 79.8906 195.509 83.321C195.509 86.1335 194.699 88.6477 193.08 90.8636C191.482 93.0795 189.244 94.8267 186.368 96.1051C183.491 97.3835 180.146 98.0227 176.332 98.0227C171.325 98.0227 167.181 96.9361 163.9 94.7628C160.619 92.5895 158.541 89.4148 157.668 85.2386L164.827 83.4489C165.509 86.0909 166.798 88.0724 168.694 89.3935C170.612 90.7145 173.115 91.375 176.205 91.375C179.72 91.375 182.511 90.6293 184.578 89.1378C186.666 87.625 187.71 85.8139 187.71 83.7045C187.71 82 187.114 80.5724 185.92 79.4219C184.727 78.25 182.895 77.3764 180.423 76.8011L172.241 74.8835C167.746 73.8182 164.443 72.1669 162.334 69.9297C160.246 67.6712 159.202 64.848 159.202 61.4602C159.202 58.6903 159.979 56.2401 161.535 54.1094C163.112 51.9787 165.253 50.3061 167.959 49.0916C170.686 47.8771 173.776 47.2699 177.227 47.2699C182.085 47.2699 185.899 48.3352 188.669 50.4659C191.46 52.5966 193.442 55.4091 194.614 58.9034ZM228.212 47.9091V54.3011H202.771V47.9091H228.212ZM210.186 36.1477H217.729V82.9375C217.729 85.0682 218.038 86.6662 218.656 87.7315C219.295 88.7756 220.105 89.4787 221.085 89.8409C222.086 90.1818 223.141 90.3523 224.249 90.3523C225.08 90.3523 225.762 90.3097 226.294 90.2244C226.827 90.1179 227.253 90.0327 227.573 89.9688L229.107 96.7443C228.595 96.9361 227.882 97.1278 226.965 97.3196C226.049 97.5327 224.888 97.6392 223.482 97.6392C221.351 97.6392 219.263 97.1811 217.218 96.2649C215.193 95.3487 213.51 93.9531 212.168 92.0781C210.847 90.2031 210.186 87.8381 210.186 84.983V36.1477ZM259.613 98.0227C254.883 98.0227 250.802 96.9787 247.372 94.8906C243.963 92.7812 241.331 89.8409 239.478 86.0696C237.645 82.277 236.729 77.8665 236.729 72.8381C236.729 67.8097 237.645 63.3778 239.478 59.5426C241.331 55.6861 243.91 52.6818 247.212 50.5298C250.536 48.3565 254.414 47.2699 258.846 47.2699C261.403 47.2699 263.927 47.696 266.42 48.5483C268.913 49.4006 271.182 50.7855 273.228 52.7031C275.273 54.5994 276.903 57.1136 278.118 60.2457C279.332 63.3778 279.939 67.2344 279.939 71.8153V75.0114H242.099V68.4915H272.269C272.269 65.7216 271.715 63.25 270.607 61.0767C269.52 58.9034 267.965 57.1882 265.941 55.9311C263.938 54.674 261.573 54.0455 258.846 54.0455C255.841 54.0455 253.242 54.7912 251.047 56.2827C248.874 57.7528 247.202 59.6705 246.03 62.0355C244.858 64.4006 244.272 66.9361 244.272 69.642V73.9886C244.272 77.696 244.911 80.8388 246.189 83.4169C247.489 85.9737 249.29 87.9233 251.591 89.2656C253.892 90.5866 256.566 91.2472 259.613 91.2472C261.594 91.2472 263.384 90.9702 264.982 90.4162C266.601 89.8409 267.997 88.9886 269.169 87.8594C270.341 86.7088 271.246 85.2812 271.885 83.5767L279.172 85.6222C278.405 88.0938 277.116 90.267 275.305 92.142C273.494 93.9957 271.257 95.4446 268.594 96.4886C265.93 97.5114 262.937 98.0227 259.613 98.0227ZM329.638 97L311.74 31.5455H319.794L333.473 84.8551H334.112L348.047 31.5455H356.996L370.93 84.8551H371.569L385.248 31.5455H393.302L375.405 97H367.223L352.777 44.8409H352.265L337.819 97H329.638ZM412.031 98.1506C408.92 98.1506 406.097 97.5646 403.562 96.3928C401.026 95.1996 399.013 93.4844 397.521 91.2472C396.03 88.9886 395.284 86.2614 395.284 83.0653C395.284 80.2528 395.838 77.973 396.946 76.2259C398.054 74.4574 399.535 73.0724 401.388 72.071C403.242 71.0696 405.287 70.3239 407.525 69.8338C409.783 69.3224 412.052 68.9176 414.332 68.6193C417.315 68.2358 419.733 67.9482 421.587 67.7564C423.462 67.5433 424.826 67.1918 425.678 66.7017C426.552 66.2116 426.988 65.3594 426.988 64.1449V63.8892C426.988 60.7358 426.126 58.2855 424.4 56.5384C422.695 54.7912 420.106 53.9176 416.633 53.9176C413.032 53.9176 410.209 54.706 408.164 56.2827C406.118 57.8594 404.68 59.5426 403.849 61.3324L396.69 58.7756C397.969 55.7926 399.673 53.4702 401.804 51.8082C403.956 50.125 406.3 48.9531 408.835 48.2926C411.392 47.6108 413.906 47.2699 416.378 47.2699C417.954 47.2699 419.765 47.4616 421.811 47.8452C423.878 48.2074 425.87 48.9638 427.787 50.1143C429.726 51.2649 431.335 53.0014 432.613 55.3239C433.892 57.6463 434.531 60.7571 434.531 64.6562V97H426.988V90.3523H426.605C426.094 91.4176 425.241 92.5575 424.048 93.772C422.855 94.9865 421.268 96.0199 419.286 96.8722C417.305 97.7244 414.886 98.1506 412.031 98.1506ZM413.182 91.375C416.165 91.375 418.679 90.7891 420.724 89.6172C422.791 88.4453 424.346 86.9325 425.39 85.0788C426.456 83.2251 426.988 81.2756 426.988 79.2301V72.3267C426.669 72.7102 425.966 73.0618 424.879 73.3814C423.814 73.6797 422.578 73.946 421.172 74.1804C419.787 74.3935 418.434 74.5852 417.113 74.7557C415.813 74.9048 414.758 75.0327 413.949 75.1392C411.988 75.3949 410.156 75.8104 408.452 76.3857C406.768 76.9396 405.405 77.7812 404.361 78.9105C403.338 80.0185 402.827 81.5312 402.827 83.4489C402.827 86.0696 403.796 88.0511 405.735 89.3935C407.695 90.7145 410.177 91.375 413.182 91.375ZM451.398 115.409C450.12 115.409 448.98 115.303 447.978 115.089C446.977 114.898 446.284 114.706 445.901 114.514L447.819 107.866C449.651 108.335 451.27 108.506 452.676 108.378C454.083 108.25 455.329 107.621 456.416 106.492C457.524 105.384 458.536 103.584 459.452 101.091L460.858 97.2557L442.705 47.9091H450.887L464.438 87.0284H464.949L478.5 47.9091H486.682L465.844 104.159C464.907 106.695 463.745 108.793 462.36 110.455C460.975 112.138 459.367 113.385 457.534 114.195C455.723 115.004 453.678 115.409 451.398 115.409ZM522.973 97V31.5455H530.899V89.9688H561.325V97H522.973ZM573.598 97V31.5455H581.524V89.9688H611.95V97H573.598ZM674.345 52H666.419C665.95 49.7202 665.129 47.7173 663.958 45.9915C662.807 44.2656 661.401 42.8168 659.739 41.6449C658.098 40.4517 656.276 39.5568 654.274 38.9602C652.271 38.3636 650.183 38.0653 648.009 38.0653C644.046 38.0653 640.456 39.0668 637.239 41.0696C634.043 43.0724 631.497 46.0234 629.6 49.9226C627.725 53.8217 626.788 58.6051 626.788 64.2727C626.788 69.9403 627.725 74.7237 629.6 78.6229C631.497 82.522 634.043 85.473 637.239 87.4759C640.456 89.4787 644.046 90.4801 648.009 90.4801C650.183 90.4801 652.271 90.1818 654.274 89.5852C656.276 88.9886 658.098 88.1044 659.739 86.9325C661.401 85.7393 662.807 84.2798 663.958 82.554C665.129 80.8068 665.95 78.804 666.419 76.5455H674.345C673.748 79.8906 672.661 82.8842 671.085 85.5263C669.508 88.1683 667.548 90.4162 665.204 92.2699C662.86 94.1023 660.229 95.4979 657.31 96.4567C654.412 97.4155 651.312 97.8949 648.009 97.8949C642.427 97.8949 637.463 96.5312 633.116 93.804C628.769 91.0767 625.35 87.1989 622.857 82.1705C620.364 77.142 619.117 71.1761 619.117 64.2727C619.117 57.3693 620.364 51.4034 622.857 46.375C625.35 41.3466 628.769 37.4688 633.116 34.7415C637.463 32.0142 642.427 30.6506 648.009 30.6506C651.312 30.6506 654.412 31.13 657.31 32.0888C660.229 33.0476 662.86 34.4538 665.204 36.3075C667.548 38.1399 669.508 40.3771 671.085 43.0192C672.661 45.6399 673.748 48.6335 674.345 52Z" fill="white" fill-opacity="0.5"/>
<path d="M34.8977 131.051V126.364H67.625V131.051H53.9034V170H48.6193V131.051H34.8977ZM83.6477 170.682C80.6932 170.682 78.1009 169.979 75.8707 168.572C73.6548 167.166 71.9219 165.199 70.6719 162.67C69.4361 160.142 68.8182 157.187 68.8182 153.807C68.8182 150.398 69.4361 147.422 70.6719 144.879C71.9219 142.337 73.6548 140.362 75.8707 138.956C78.1009 137.55 80.6932 136.847 83.6477 136.847C86.6023 136.847 89.1875 137.55 91.4034 138.956C93.6335 140.362 95.3665 142.337 96.6023 144.879C97.8523 147.422 98.4773 150.398 98.4773 153.807C98.4773 157.187 97.8523 160.142 96.6023 162.67C95.3665 165.199 93.6335 167.166 91.4034 168.572C89.1875 169.979 86.6023 170.682 83.6477 170.682ZM83.6477 166.165C85.892 166.165 87.7386 165.589 89.1875 164.439C90.6364 163.288 91.7088 161.776 92.4048 159.901C93.1009 158.026 93.4489 155.994 93.4489 153.807C93.4489 151.619 93.1009 149.581 92.4048 147.692C91.7088 145.803 90.6364 144.276 89.1875 143.111C87.7386 141.946 85.892 141.364 83.6477 141.364C81.4034 141.364 79.5568 141.946 78.108 143.111C76.6591 144.276 75.5866 145.803 74.8906 147.692C74.1946 149.581 73.8466 151.619 73.8466 153.807C73.8466 155.994 74.1946 158.026 74.8906 159.901C75.5866 161.776 76.6591 163.288 78.108 164.439C79.5568 165.589 81.4034 166.165 83.6477 166.165ZM118.511 170.682C115.784 170.682 113.376 169.993 111.288 168.615C109.2 167.223 107.566 165.263 106.387 162.734C105.208 160.192 104.619 157.188 104.619 153.722C104.619 150.284 105.208 147.301 106.387 144.773C107.566 142.244 109.207 140.291 111.309 138.913C113.412 137.536 115.841 136.847 118.596 136.847C120.727 136.847 122.41 137.202 123.646 137.912C124.896 138.608 125.848 139.403 126.501 140.298C127.169 141.179 127.687 141.903 128.056 142.472H128.483V126.364H133.511V170H128.653V164.972H128.056C127.687 165.568 127.162 166.321 126.48 167.23C125.798 168.125 124.825 168.928 123.561 169.638C122.297 170.334 120.613 170.682 118.511 170.682ZM119.193 166.165C121.21 166.165 122.914 165.639 124.306 164.588C125.699 163.523 126.757 162.053 127.481 160.178C128.206 158.288 128.568 156.108 128.568 153.636C128.568 151.193 128.213 149.055 127.502 147.223C126.792 145.376 125.741 143.942 124.349 142.919C122.957 141.882 121.238 141.364 119.193 141.364C117.062 141.364 115.287 141.911 113.866 143.004C112.46 144.084 111.402 145.554 110.691 147.415C109.995 149.261 109.647 151.335 109.647 153.636C109.647 155.966 110.002 158.082 110.713 159.986C111.437 161.875 112.502 163.381 113.909 164.503C115.329 165.611 117.091 166.165 119.193 166.165ZM156.714 170.682C153.76 170.682 151.167 169.979 148.937 168.572C146.721 167.166 144.988 165.199 143.738 162.67C142.502 160.142 141.885 157.187 141.885 153.807C141.885 150.398 142.502 147.422 143.738 144.879C144.988 142.337 146.721 140.362 148.937 138.956C151.167 137.55 153.76 136.847 156.714 136.847C159.669 136.847 162.254 137.55 164.47 138.956C166.7 140.362 168.433 142.337 169.669 144.879C170.919 147.422 171.544 150.398 171.544 153.807C171.544 157.187 170.919 160.142 169.669 162.67C168.433 165.199 166.7 167.166 164.47 168.572C162.254 169.979 159.669 170.682 156.714 170.682ZM156.714 166.165C158.958 166.165 160.805 165.589 162.254 164.439C163.703 163.288 164.775 161.776 165.471 159.901C166.167 158.026 166.515 155.994 166.515 153.807C166.515 151.619 166.167 149.581 165.471 147.692C164.775 145.803 163.703 144.276 162.254 143.111C160.805 141.946 158.958 141.364 156.714 141.364C154.47 141.364 152.623 141.946 151.174 143.111C149.725 144.276 148.653 145.803 147.957 147.692C147.261 149.581 146.913 151.619 146.913 153.807C146.913 155.994 147.261 158.026 147.957 159.901C148.653 161.776 149.725 163.288 151.174 164.439C152.623 165.589 154.47 166.165 156.714 166.165ZM201.123 126.364V170H196.094V126.364H201.123ZM223.628 170.682C220.674 170.682 218.081 169.979 215.851 168.572C213.635 167.166 211.902 165.199 210.652 162.67C209.417 160.142 208.799 157.187 208.799 153.807C208.799 150.398 209.417 147.422 210.652 144.879C211.902 142.337 213.635 140.362 215.851 138.956C218.081 137.55 220.674 136.847 223.628 136.847C226.583 136.847 229.168 137.55 231.384 138.956C233.614 140.362 235.347 142.337 236.583 144.879C237.833 147.422 238.458 150.398 238.458 153.807C238.458 157.187 237.833 160.142 236.583 162.67C235.347 165.199 233.614 167.166 231.384 168.572C229.168 169.979 226.583 170.682 223.628 170.682ZM223.628 166.165C225.873 166.165 227.719 165.589 229.168 164.439C230.617 163.288 231.689 161.776 232.385 159.901C233.081 158.026 233.429 155.994 233.429 153.807C233.429 151.619 233.081 149.581 232.385 147.692C231.689 145.803 230.617 144.276 229.168 143.111C227.719 141.946 225.873 141.364 223.628 141.364C221.384 141.364 219.537 141.946 218.088 143.111C216.64 144.276 215.567 145.803 214.871 147.692C214.175 149.581 213.827 151.619 213.827 153.807C213.827 155.994 214.175 158.026 214.871 159.901C215.567 161.776 216.64 163.288 218.088 164.439C219.537 165.589 221.384 166.165 223.628 166.165ZM285.338 182.273V164.972H284.912C284.543 165.568 284.017 166.321 283.335 167.23C282.653 168.125 281.68 168.928 280.416 169.638C279.152 170.334 277.469 170.682 275.366 170.682C272.639 170.682 270.232 169.993 268.143 168.615C266.055 167.223 264.422 165.263 263.243 162.734C262.064 160.192 261.474 157.188 261.474 153.722C261.474 150.284 262.064 147.301 263.243 144.773C264.422 142.244 266.063 140.291 268.165 138.913C270.267 137.536 272.696 136.847 275.452 136.847C277.582 136.847 279.266 137.202 280.501 137.912C281.751 138.608 282.703 139.403 283.357 140.298C284.024 141.179 284.543 141.903 284.912 142.472H285.509V137.273H290.366V182.273H285.338ZM276.048 166.165C278.065 166.165 279.77 165.639 281.162 164.588C282.554 163.523 283.612 162.053 284.337 160.178C285.061 158.288 285.423 156.108 285.423 153.636C285.423 151.193 285.068 149.055 284.358 147.223C283.648 145.376 282.597 143.942 281.205 142.919C279.813 141.882 278.094 141.364 276.048 141.364C273.918 141.364 272.142 141.911 270.722 143.004C269.315 144.084 268.257 145.554 267.547 147.415C266.851 149.261 266.503 151.335 266.503 153.636C266.503 155.966 266.858 158.082 267.568 159.986C268.293 161.875 269.358 163.381 270.764 164.503C272.185 165.611 273.946 166.165 276.048 166.165ZM320.196 156.619V137.273H325.224V170H320.196V164.46H319.855C319.088 166.122 317.895 167.536 316.276 168.7C314.656 169.851 312.611 170.426 310.139 170.426C308.094 170.426 306.276 169.979 304.685 169.084C303.094 168.175 301.844 166.811 300.935 164.993C300.026 163.161 299.571 160.852 299.571 158.068V137.273H304.599V157.727C304.599 160.114 305.267 162.017 306.602 163.438C307.952 164.858 309.67 165.568 311.759 165.568C313.009 165.568 314.28 165.249 315.572 164.609C316.879 163.97 317.973 162.99 318.854 161.669C319.749 160.348 320.196 158.665 320.196 156.619ZM348.156 170.682C345.002 170.682 342.282 169.986 339.995 168.594C337.723 167.188 335.968 165.227 334.733 162.713C333.511 160.185 332.9 157.244 332.9 153.892C332.9 150.54 333.511 147.585 334.733 145.028C335.968 142.457 337.687 140.455 339.889 139.02C342.105 137.571 344.69 136.847 347.645 136.847C349.349 136.847 351.032 137.131 352.694 137.699C354.356 138.267 355.869 139.19 357.233 140.469C358.596 141.733 359.683 143.409 360.493 145.497C361.302 147.585 361.707 150.156 361.707 153.21V155.341H336.48V150.994H356.593C356.593 149.148 356.224 147.5 355.485 146.051C354.761 144.602 353.724 143.459 352.375 142.621C351.039 141.783 349.463 141.364 347.645 141.364C345.642 141.364 343.909 141.861 342.446 142.855C340.997 143.835 339.882 145.114 339.1 146.69C338.319 148.267 337.929 149.957 337.929 151.761V154.659C337.929 157.131 338.355 159.226 339.207 160.945C340.074 162.649 341.274 163.949 342.808 164.844C344.342 165.724 346.125 166.165 348.156 166.165C349.477 166.165 350.67 165.98 351.735 165.611C352.815 165.227 353.745 164.659 354.527 163.906C355.308 163.139 355.912 162.187 356.338 161.051L361.196 162.415C360.684 164.062 359.825 165.511 358.618 166.761C357.41 167.997 355.919 168.963 354.143 169.659C352.368 170.341 350.372 170.682 348.156 170.682ZM391.26 150.312V170H386.231V137.273H391.089V142.386H391.515C392.282 140.724 393.447 139.389 395.01 138.381C396.572 137.358 398.589 136.847 401.061 136.847C403.277 136.847 405.216 137.301 406.877 138.21C408.539 139.105 409.832 140.469 410.755 142.301C411.679 144.119 412.14 146.42 412.14 149.205V170H407.112V149.545C407.112 146.974 406.444 144.972 405.109 143.537C403.774 142.088 401.941 141.364 399.612 141.364C398.007 141.364 396.572 141.712 395.308 142.408C394.058 143.104 393.071 144.119 392.346 145.455C391.622 146.79 391.26 148.409 391.26 150.312ZM435.05 170.682C431.897 170.682 429.177 169.986 426.89 168.594C424.617 167.188 422.863 165.227 421.627 162.713C420.406 160.185 419.795 157.244 419.795 153.892C419.795 150.54 420.406 147.585 421.627 145.028C422.863 142.457 424.582 140.455 426.783 139.02C428.999 137.571 431.585 136.847 434.539 136.847C436.244 136.847 437.927 137.131 439.589 137.699C441.251 138.267 442.763 139.19 444.127 140.469C445.491 141.733 446.577 143.409 447.387 145.497C448.197 147.585 448.602 150.156 448.602 153.21V155.341H423.374V150.994H443.488C443.488 149.148 443.119 147.5 442.38 146.051C441.656 144.602 440.619 143.459 439.269 142.621C437.934 141.783 436.357 141.364 434.539 141.364C432.536 141.364 430.803 141.861 429.34 142.855C427.891 143.835 426.776 145.114 425.995 146.69C425.214 148.267 424.823 149.957 424.823 151.761V154.659C424.823 157.131 425.249 159.226 426.102 160.945C426.968 162.649 428.168 163.949 429.702 164.844C431.237 165.724 433.019 166.165 435.05 166.165C436.371 166.165 437.565 165.98 438.63 165.611C439.71 165.227 440.64 164.659 441.421 163.906C442.202 163.139 442.806 162.187 443.232 161.051L448.09 162.415C447.579 164.062 446.719 165.511 445.512 166.761C444.305 167.997 442.813 168.963 441.038 169.659C439.262 170.341 437.266 170.682 435.05 170.682ZM469.546 170.682C466.478 170.682 463.836 169.957 461.62 168.509C459.404 167.06 457.7 165.064 456.506 162.521C455.313 159.979 454.717 157.074 454.717 153.807C454.717 150.483 455.327 147.55 456.549 145.007C457.785 142.45 459.504 140.455 461.705 139.02C463.921 137.571 466.506 136.847 469.461 136.847C471.762 136.847 473.836 137.273 475.683 138.125C477.529 138.977 479.042 140.17 480.221 141.705C481.4 143.239 482.131 145.028 482.415 147.074H477.387C477.004 145.582 476.151 144.261 474.83 143.111C473.523 141.946 471.762 141.364 469.546 141.364C467.586 141.364 465.867 141.875 464.39 142.898C462.927 143.906 461.783 145.334 460.96 147.18C460.15 149.013 459.745 151.165 459.745 153.636C459.745 156.165 460.143 158.366 460.938 160.241C461.748 162.116 462.884 163.572 464.347 164.609C465.825 165.646 467.558 166.165 469.546 166.165C470.853 166.165 472.039 165.938 473.104 165.483C474.17 165.028 475.072 164.375 475.81 163.523C476.549 162.67 477.075 161.648 477.387 160.455H482.415C482.131 162.386 481.428 164.126 480.306 165.675C479.198 167.209 477.728 168.43 475.896 169.339C474.077 170.234 471.961 170.682 469.546 170.682ZM503.488 170.682C500.335 170.682 497.614 169.986 495.327 168.594C493.055 167.188 491.3 165.227 490.065 162.713C488.843 160.185 488.232 157.244 488.232 153.892C488.232 150.54 488.843 147.585 490.065 145.028C491.3 142.457 493.019 140.455 495.221 139.02C497.437 137.571 500.022 136.847 502.977 136.847C504.681 136.847 506.364 137.131 508.026 137.699C509.688 138.267 511.201 139.19 512.565 140.469C513.928 141.733 515.015 143.409 515.825 145.497C516.634 147.585 517.039 150.156 517.039 153.21V155.341H491.812V150.994H511.925C511.925 149.148 511.556 147.5 510.817 146.051C510.093 144.602 509.056 143.459 507.707 142.621C506.371 141.783 504.795 141.364 502.977 141.364C500.974 141.364 499.241 141.861 497.778 142.855C496.329 143.835 495.214 145.114 494.433 146.69C493.651 148.267 493.261 149.957 493.261 151.761V154.659C493.261 157.131 493.687 159.226 494.539 160.945C495.406 162.649 496.606 163.949 498.14 164.844C499.674 165.724 501.457 166.165 503.488 166.165C504.809 166.165 506.002 165.98 507.067 165.611C508.147 165.227 509.077 164.659 509.859 163.906C510.64 163.139 511.244 162.187 511.67 161.051L516.528 162.415C516.016 164.062 515.157 165.511 513.95 166.761C512.742 167.997 511.251 168.963 509.475 169.659C507.7 170.341 505.704 170.682 503.488 170.682ZM547.87 144.602L543.353 145.881C543.069 145.128 542.65 144.396 542.096 143.686C541.556 142.962 540.817 142.365 539.88 141.896C538.942 141.428 537.742 141.193 536.279 141.193C534.276 141.193 532.607 141.655 531.272 142.578C529.951 143.487 529.29 144.645 529.29 146.051C529.29 147.301 529.745 148.288 530.654 149.013C531.563 149.737 532.984 150.341 534.915 150.824L539.773 152.017C542.7 152.727 544.88 153.814 546.315 155.277C547.749 156.726 548.467 158.594 548.467 160.881C548.467 162.756 547.927 164.432 546.847 165.909C545.782 167.386 544.29 168.551 542.373 169.403C540.455 170.256 538.225 170.682 535.683 170.682C532.344 170.682 529.582 169.957 527.394 168.509C525.207 167.06 523.822 164.943 523.239 162.159L528.012 160.966C528.467 162.727 529.326 164.048 530.59 164.929C531.869 165.81 533.538 166.25 535.597 166.25C537.941 166.25 539.802 165.753 541.18 164.759C542.572 163.75 543.268 162.543 543.268 161.136C543.268 160 542.87 159.048 542.075 158.281C541.279 157.5 540.058 156.918 538.41 156.534L532.955 155.256C529.958 154.545 527.756 153.445 526.35 151.953C524.958 150.447 524.262 148.565 524.262 146.307C524.262 144.46 524.781 142.827 525.817 141.406C526.869 139.986 528.296 138.871 530.1 138.061C531.918 137.251 533.978 136.847 536.279 136.847C539.518 136.847 542.06 137.557 543.907 138.977C545.768 140.398 547.089 142.273 547.87 144.602ZM556.036 170V137.273H561.064V170H556.036ZM558.593 131.818C557.613 131.818 556.767 131.484 556.057 130.817C555.361 130.149 555.013 129.347 555.013 128.409C555.013 127.472 555.361 126.669 556.057 126.001C556.767 125.334 557.613 125 558.593 125C559.573 125 560.411 125.334 561.107 126.001C561.817 126.669 562.172 127.472 562.172 128.409C562.172 129.347 561.817 130.149 561.107 130.817C560.411 131.484 559.573 131.818 558.593 131.818ZM584.507 137.273V141.534H567.547V137.273H584.507ZM572.49 129.432H577.518V160.625C577.518 162.045 577.724 163.111 578.136 163.821C578.563 164.517 579.102 164.986 579.756 165.227C580.423 165.455 581.126 165.568 581.865 165.568C582.419 165.568 582.874 165.54 583.229 165.483C583.584 165.412 583.868 165.355 584.081 165.312L585.104 169.83C584.763 169.957 584.287 170.085 583.676 170.213C583.065 170.355 582.291 170.426 581.354 170.426C579.933 170.426 578.541 170.121 577.178 169.51C575.828 168.899 574.706 167.969 573.811 166.719C572.93 165.469 572.49 163.892 572.49 161.989V129.432ZM601.702 170.767C599.628 170.767 597.746 170.376 596.055 169.595C594.365 168.8 593.023 167.656 592.028 166.165C591.034 164.659 590.537 162.841 590.537 160.71C590.537 158.835 590.906 157.315 591.645 156.151C592.384 154.972 593.371 154.048 594.607 153.381C595.842 152.713 597.206 152.216 598.697 151.889C600.203 151.548 601.716 151.278 603.236 151.08C605.224 150.824 606.837 150.632 608.072 150.504C609.322 150.362 610.232 150.128 610.8 149.801C611.382 149.474 611.673 148.906 611.673 148.097V147.926C611.673 145.824 611.098 144.19 609.947 143.026C608.811 141.861 607.085 141.278 604.77 141.278C602.369 141.278 600.487 141.804 599.124 142.855C597.76 143.906 596.801 145.028 596.247 146.222L591.474 144.517C592.327 142.528 593.463 140.98 594.884 139.872C596.318 138.75 597.881 137.969 599.571 137.528C601.276 137.074 602.952 136.847 604.599 136.847C605.651 136.847 606.858 136.974 608.222 137.23C609.599 137.472 610.928 137.976 612.206 138.743C613.499 139.51 614.571 140.668 615.423 142.216C616.276 143.764 616.702 145.838 616.702 148.438V170H611.673V165.568H611.418C611.077 166.278 610.509 167.038 609.713 167.848C608.918 168.658 607.859 169.347 606.538 169.915C605.217 170.483 603.605 170.767 601.702 170.767ZM602.469 166.25C604.457 166.25 606.134 165.859 607.497 165.078C608.875 164.297 609.912 163.288 610.608 162.053C611.318 160.817 611.673 159.517 611.673 158.153V153.551C611.46 153.807 610.991 154.041 610.267 154.254C609.557 154.453 608.733 154.631 607.795 154.787C606.872 154.929 605.97 155.057 605.089 155.17C604.223 155.27 603.52 155.355 602.98 155.426C601.673 155.597 600.452 155.874 599.315 156.257C598.193 156.626 597.284 157.187 596.588 157.94C595.906 158.679 595.565 159.687 595.565 160.966C595.565 162.713 596.212 164.034 597.504 164.929C598.811 165.81 600.466 166.25 602.469 166.25ZM649.061 144.602L644.544 145.881C644.26 145.128 643.841 144.396 643.287 143.686C642.748 142.962 642.009 142.365 641.071 141.896C640.134 141.428 638.934 141.193 637.471 141.193C635.468 141.193 633.799 141.655 632.463 142.578C631.142 143.487 630.482 144.645 630.482 146.051C630.482 147.301 630.936 148.288 631.846 149.013C632.755 149.737 634.175 150.341 636.107 150.824L640.965 152.017C643.891 152.727 646.071 153.814 647.506 155.277C648.941 156.726 649.658 158.594 649.658 160.881C649.658 162.756 649.118 164.432 648.039 165.909C646.973 167.386 645.482 168.551 643.564 169.403C641.647 170.256 639.417 170.682 636.874 170.682C633.536 170.682 630.773 169.957 628.586 168.509C626.398 167.06 625.013 164.943 624.431 162.159L629.203 160.966C629.658 162.727 630.517 164.048 631.782 164.929C633.06 165.81 634.729 166.25 636.789 166.25C639.132 166.25 640.993 165.753 642.371 164.759C643.763 163.75 644.459 162.543 644.459 161.136C644.459 160 644.061 159.048 643.266 158.281C642.471 157.5 641.249 156.918 639.601 156.534L634.147 155.256C631.15 154.545 628.948 153.445 627.542 151.953C626.15 150.447 625.453 148.565 625.453 146.307C625.453 144.46 625.972 142.827 627.009 141.406C628.06 139.986 629.488 138.871 631.292 138.061C633.11 137.251 635.169 136.847 637.471 136.847C640.709 136.847 643.252 137.557 645.098 138.977C646.959 140.398 648.28 142.273 649.061 144.602ZM683.733 170.767C681.659 170.767 679.777 170.376 678.087 169.595C676.396 168.8 675.054 167.656 674.06 166.165C673.065 164.659 672.568 162.841 672.568 160.71C672.568 158.835 672.938 157.315 673.676 156.151C674.415 154.972 675.402 154.048 676.638 153.381C677.874 152.713 679.237 152.216 680.729 151.889C682.234 151.548 683.747 151.278 685.267 151.08C687.256 150.824 688.868 150.632 690.104 150.504C691.354 150.362 692.263 150.128 692.831 149.801C693.413 149.474 693.705 148.906 693.705 148.097V147.926C693.705 145.824 693.129 144.19 691.979 143.026C690.842 141.861 689.116 141.278 686.801 141.278C684.401 141.278 682.518 141.804 681.155 142.855C679.791 143.906 678.832 145.028 678.278 146.222L673.506 144.517C674.358 142.528 675.494 140.98 676.915 139.872C678.349 138.75 679.912 137.969 681.602 137.528C683.307 137.074 684.983 136.847 686.631 136.847C687.682 136.847 688.889 136.974 690.253 137.23C691.631 137.472 692.959 137.976 694.237 138.743C695.53 139.51 696.602 140.668 697.455 142.216C698.307 143.764 698.733 145.838 698.733 148.438V170H693.705V165.568H693.449C693.108 166.278 692.54 167.038 691.744 167.848C690.949 168.658 689.891 169.347 688.57 169.915C687.249 170.483 685.636 170.767 683.733 170.767ZM684.5 166.25C686.489 166.25 688.165 165.859 689.528 165.078C690.906 164.297 691.943 163.288 692.639 162.053C693.349 160.817 693.705 159.517 693.705 158.153V153.551C693.491 153.807 693.023 154.041 692.298 154.254C691.588 154.453 690.764 154.631 689.827 154.787C688.903 154.929 688.001 155.057 687.121 155.17C686.254 155.27 685.551 155.355 685.011 155.426C683.705 155.597 682.483 155.874 681.347 156.257C680.224 156.626 679.315 157.187 678.619 157.94C677.938 158.679 677.597 159.687 677.597 160.966C677.597 162.713 678.243 164.034 679.536 164.929C680.842 165.81 682.497 166.25 684.5 166.25ZM50.8352 210.273V214.534H33.875V210.273H50.8352ZM38.8182 202.432H43.8466V233.625C43.8466 235.045 44.0526 236.111 44.4645 236.821C44.8906 237.517 45.4304 237.986 46.0838 238.227C46.7514 238.455 47.4545 238.568 48.1932 238.568C48.7472 238.568 49.2017 238.54 49.5568 238.483C49.9119 238.412 50.196 238.355 50.4091 238.312L51.4318 242.83C51.0909 242.957 50.6151 243.085 50.0043 243.213C49.3935 243.355 48.6193 243.426 47.6818 243.426C46.2614 243.426 44.8693 243.121 43.5057 242.51C42.1563 241.899 41.0341 240.969 40.1392 239.719C39.2585 238.469 38.8182 236.892 38.8182 234.989V202.432ZM79.0241 229.619V210.273H84.0526V243H79.0241V237.46H78.6832C77.9162 239.122 76.723 240.536 75.1037 241.7C73.4844 242.851 71.4389 243.426 68.9673 243.426C66.9219 243.426 65.1037 242.979 63.5128 242.084C61.9219 241.175 60.6719 239.811 59.7628 237.993C58.8537 236.161 58.3991 233.852 58.3991 231.068V210.273H63.4276V230.727C63.4276 233.114 64.0952 235.017 65.4304 236.438C66.7798 237.858 68.4986 238.568 70.5866 238.568C71.8366 238.568 73.108 238.249 74.4006 237.609C75.7074 236.97 76.8011 235.99 77.6818 234.669C78.5767 233.348 79.0241 231.665 79.0241 229.619ZM119.768 243.767C117.694 243.767 115.812 243.376 114.122 242.595C112.431 241.8 111.089 240.656 110.095 239.165C109.1 237.659 108.603 235.841 108.603 233.71C108.603 231.835 108.973 230.315 109.711 229.151C110.45 227.972 111.437 227.048 112.673 226.381C113.909 225.713 115.272 225.216 116.764 224.889C118.27 224.548 119.782 224.278 121.302 224.08C123.291 223.824 124.903 223.632 126.139 223.504C127.389 223.362 128.298 223.128 128.866 222.801C129.449 222.474 129.74 221.906 129.74 221.097V220.926C129.74 218.824 129.164 217.19 128.014 216.026C126.877 214.861 125.152 214.278 122.836 214.278C120.436 214.278 118.554 214.804 117.19 215.855C115.826 216.906 114.868 218.028 114.314 219.222L109.541 217.517C110.393 215.528 111.529 213.98 112.95 212.872C114.385 211.75 115.947 210.969 117.637 210.528C119.342 210.074 121.018 209.847 122.666 209.847C123.717 209.847 124.924 209.974 126.288 210.23C127.666 210.472 128.994 210.976 130.272 211.743C131.565 212.51 132.637 213.668 133.49 215.216C134.342 216.764 134.768 218.838 134.768 221.438V243H129.74V238.568H129.484C129.143 239.278 128.575 240.038 127.779 240.848C126.984 241.658 125.926 242.347 124.605 242.915C123.284 243.483 121.672 243.767 119.768 243.767ZM120.535 239.25C122.524 239.25 124.2 238.859 125.564 238.078C126.941 237.297 127.978 236.288 128.674 235.053C129.385 233.817 129.74 232.517 129.74 231.153V226.551C129.527 226.807 129.058 227.041 128.333 227.254C127.623 227.453 126.799 227.631 125.862 227.787C124.939 227.929 124.037 228.057 123.156 228.17C122.289 228.27 121.586 228.355 121.047 228.426C119.74 228.597 118.518 228.874 117.382 229.257C116.26 229.626 115.35 230.187 114.654 230.94C113.973 231.679 113.632 232.687 113.632 233.966C113.632 235.713 114.278 237.034 115.571 237.929C116.877 238.81 118.532 239.25 120.535 239.25ZM148.974 199.364V243H143.946V199.364H148.974ZM171.48 243.682C168.412 243.682 165.77 242.957 163.554 241.509C161.338 240.06 159.633 238.064 158.44 235.521C157.247 232.979 156.65 230.074 156.65 226.807C156.65 223.483 157.261 220.55 158.483 218.007C159.718 215.45 161.437 213.455 163.639 212.02C165.855 210.571 168.44 209.847 171.395 209.847C173.696 209.847 175.77 210.273 177.616 211.125C179.463 211.977 180.975 213.17 182.154 214.705C183.333 216.239 184.065 218.028 184.349 220.074H179.321C178.937 218.582 178.085 217.261 176.764 216.111C175.457 214.946 173.696 214.364 171.48 214.364C169.52 214.364 167.801 214.875 166.324 215.898C164.86 216.906 163.717 218.334 162.893 220.18C162.083 222.013 161.679 224.165 161.679 226.636C161.679 229.165 162.076 231.366 162.872 233.241C163.681 235.116 164.818 236.572 166.281 237.609C167.758 238.646 169.491 239.165 171.48 239.165C172.787 239.165 173.973 238.938 175.038 238.483C176.103 238.028 177.005 237.375 177.744 236.523C178.483 235.67 179.008 234.648 179.321 233.455H184.349C184.065 235.386 183.362 237.126 182.24 238.675C181.132 240.209 179.662 241.43 177.829 242.339C176.011 243.234 173.895 243.682 171.48 243.682ZM201.331 243.767C199.257 243.767 197.375 243.376 195.684 242.595C193.994 241.8 192.652 240.656 191.657 239.165C190.663 237.659 190.166 235.841 190.166 233.71C190.166 231.835 190.535 230.315 191.274 229.151C192.012 227.972 193 227.048 194.235 226.381C195.471 225.713 196.835 225.216 198.326 224.889C199.832 224.548 201.345 224.278 202.865 224.08C204.853 223.824 206.466 223.632 207.701 223.504C208.951 223.362 209.86 223.128 210.429 222.801C211.011 222.474 211.302 221.906 211.302 221.097V220.926C211.302 218.824 210.727 217.19 209.576 216.026C208.44 214.861 206.714 214.278 204.399 214.278C201.998 214.278 200.116 214.804 198.752 215.855C197.389 216.906 196.43 218.028 195.876 219.222L191.103 217.517C191.956 215.528 193.092 213.98 194.512 212.872C195.947 211.75 197.51 210.969 199.2 210.528C200.904 210.074 202.581 209.847 204.228 209.847C205.279 209.847 206.487 209.974 207.85 210.23C209.228 210.472 210.556 210.976 211.835 211.743C213.127 212.51 214.2 213.668 215.052 215.216C215.904 216.764 216.331 218.838 216.331 221.438V243H211.302V238.568H211.047C210.706 239.278 210.137 240.038 209.342 240.848C208.547 241.658 207.488 242.347 206.167 242.915C204.846 243.483 203.234 243.767 201.331 243.767ZM202.098 239.25C204.086 239.25 205.762 238.859 207.126 238.078C208.504 237.297 209.541 236.288 210.237 235.053C210.947 233.817 211.302 232.517 211.302 231.153V226.551C211.089 226.807 210.62 227.041 209.896 227.254C209.186 227.453 208.362 227.631 207.424 227.787C206.501 227.929 205.599 228.057 204.718 228.17C203.852 228.27 203.149 228.355 202.609 228.426C201.302 228.597 200.081 228.874 198.944 229.257C197.822 229.626 196.913 230.187 196.217 230.94C195.535 231.679 195.194 232.687 195.194 233.966C195.194 235.713 195.841 237.034 197.133 237.929C198.44 238.81 200.095 239.25 202.098 239.25ZM230.537 223.312V243H225.509V210.273H230.366V215.386H230.793C231.56 213.724 232.724 212.389 234.287 211.381C235.849 210.358 237.866 209.847 240.338 209.847C242.554 209.847 244.493 210.301 246.155 211.21C247.817 212.105 249.109 213.469 250.033 215.301C250.956 217.119 251.418 219.42 251.418 222.205V243H246.389V222.545C246.389 219.974 245.722 217.972 244.386 216.537C243.051 215.088 241.219 214.364 238.889 214.364C237.284 214.364 235.849 214.712 234.585 215.408C233.335 216.104 232.348 217.119 231.624 218.455C230.899 219.79 230.537 221.409 230.537 223.312ZM273.902 243.682C270.833 243.682 268.191 242.957 265.975 241.509C263.76 240.06 262.055 238.064 260.862 235.521C259.669 232.979 259.072 230.074 259.072 226.807C259.072 223.483 259.683 220.55 260.904 218.007C262.14 215.45 263.859 213.455 266.061 212.02C268.277 210.571 270.862 209.847 273.816 209.847C276.118 209.847 278.191 210.273 280.038 211.125C281.885 211.977 283.397 213.17 284.576 214.705C285.755 216.239 286.487 218.028 286.771 220.074H281.743C281.359 218.582 280.507 217.261 279.186 216.111C277.879 214.946 276.118 214.364 273.902 214.364C271.941 214.364 270.223 214.875 268.745 215.898C267.282 216.906 266.139 218.334 265.315 220.18C264.505 222.013 264.1 224.165 264.1 226.636C264.1 229.165 264.498 231.366 265.294 233.241C266.103 235.116 267.24 236.572 268.703 237.609C270.18 238.646 271.913 239.165 273.902 239.165C275.208 239.165 276.395 238.938 277.46 238.483C278.525 238.028 279.427 237.375 280.166 236.523C280.904 235.67 281.43 234.648 281.743 233.455H286.771C286.487 235.386 285.784 237.126 284.662 238.675C283.554 240.209 282.083 241.43 280.251 242.339C278.433 243.234 276.316 243.682 273.902 243.682ZM307.843 243.682C304.69 243.682 301.97 242.986 299.683 241.594C297.41 240.188 295.656 238.227 294.42 235.713C293.199 233.185 292.588 230.244 292.588 226.892C292.588 223.54 293.199 220.585 294.42 218.028C295.656 215.457 297.375 213.455 299.576 212.02C301.792 210.571 304.377 209.847 307.332 209.847C309.037 209.847 310.72 210.131 312.382 210.699C314.044 211.267 315.556 212.19 316.92 213.469C318.284 214.733 319.37 216.409 320.18 218.497C320.99 220.585 321.395 223.156 321.395 226.21V228.341H296.167V223.994H316.281C316.281 222.148 315.912 220.5 315.173 219.051C314.449 217.602 313.412 216.459 312.062 215.621C310.727 214.783 309.15 214.364 307.332 214.364C305.329 214.364 303.596 214.861 302.133 215.855C300.684 216.835 299.569 218.114 298.788 219.69C298.007 221.267 297.616 222.957 297.616 224.761V227.659C297.616 230.131 298.042 232.226 298.895 233.945C299.761 235.649 300.961 236.949 302.495 237.844C304.029 238.724 305.812 239.165 307.843 239.165C309.164 239.165 310.358 238.98 311.423 238.611C312.502 238.227 313.433 237.659 314.214 236.906C314.995 236.139 315.599 235.187 316.025 234.051L320.883 235.415C320.372 237.062 319.512 238.511 318.305 239.761C317.098 240.997 315.606 241.963 313.831 242.659C312.055 243.341 310.059 243.682 307.843 243.682Z" fill="#D8D8D8" fill-opacity="0.5"/>
<path d="M0 10H1440V-10H0V10Z" fill="#4DB1F9" mask="url(#path-1-inside-1_102_3)"/>
</svg>
