<svg width="324" height="1162" viewBox="0 0 324 1162" fill="none" xmlns="http://www.w3.org/2000/svg">
<path fill-rule="evenodd" clip-rule="evenodd" d="M36 1162L66 1137.79C96 1113.58 156 1065.17 156 1016.75C156 968.333 96 919.917 102 871.5C108 823.083 180 774.667 204 726.25C228 677.833 204 629.417 156 581C108 532.583 36 484.167 18 435.75C0 387.333 36 338.917 78 290.5C120 242.083 168 193.667 156 145.25C144 96.8334 72 48.4167 36 24.2084L0 0H324V24.2084C324 48.4167 324 96.8334 324 145.25C324 193.667 324 242.083 324 290.5C324 338.917 324 387.333 324 435.75C324 484.167 324 532.583 324 581C324 629.417 324 677.833 324 726.25C324 774.667 324 823.083 324 871.5C324 919.917 324 968.333 324 1016.75C324 1065.17 324 1113.58 324 1137.79V1162H36Z" fill="#0099FF"/>
</svg>
